<?xml version="1.0" encoding="UTF-8" standalone="no"?>
<!-- Created with Inkscape (http://www.inkscape.org/) -->
<svg
   xmlns:svg="http://www.w3.org/2000/svg"
   xmlns="http://www.w3.org/2000/svg"
   xmlns:xlink="http://www.w3.org/1999/xlink"
   version="1.0"
   width="390"
   height="450"
   id="svg1901">
  <defs
     id="defs1903" />
  <g
     transform="translate(-4.3945334,-7.8142014)"
     style="opacity:1"
     id="layer1">
    <path
       d="M 76.576945,75.464952 L 55.821719,75.464951 L 45.444107,57.490397 L 55.821721,39.515845 L 76.576947,39.515846 L 86.954559,57.490399 L 76.576945,75.464952 z "
       transform="matrix(0.7688749,0,0,0.767628,-26.159914,84.175224)"
       style="opacity:1;fill:#ffffff;fill-opacity:1;stroke:#000000;stroke-width:1.9524864;stroke-miterlimit:4;stroke-dasharray:none;stroke-opacity:1"
       id="path12394" />
    <use
       id="use16116"
       x="0"
       y="0"
       width="400"
       height="400"
       xlink:href="#path12394" />
    <use
       transform="translate(0,29.095541)"
       id="use16118"
       x="0"
       y="0"
       width="400"
       height="400"
       xlink:href="#path12394" />
    <use
       transform="translate(0,58.191083)"
       id="use16120"
       x="0"
       y="0"
       width="400"
       height="400"
       xlink:href="#path12394" />
    <use
       transform="translate(0,87.286624)"
       id="use16122"
       x="0"
       y="0"
       width="400"
       height="400"
       xlink:href="#path12394" />
    <use
       transform="translate(0,116.38217)"
       id="use16124"
       x="0"
       y="0"
       width="400"
       height="400"
       xlink:href="#path12394" />
    <use
       transform="translate(0,145.47771)"
       id="use16126"
       x="0"
       y="0"
       width="400"
       height="400"
       xlink:href="#path12394" />
    <use
       transform="translate(0,174.57325)"
       id="use16128"
       x="0"
       y="0"
       width="400"
       height="400"
       xlink:href="#path12394" />
    <use
       transform="translate(0,203.66879)"
       id="use16130"
       x="0"
       y="0"
       width="400"
       height="400"
       xlink:href="#path12394" />
    <use
       transform="translate(25.062259,-14.547771)"
       id="use16156"
       x="0"
       y="0"
       width="400"
       height="400"
       xlink:href="#path12394" />
    <use
       transform="translate(25.062259,14.547771)"
       id="use16158"
       x="0"
       y="0"
       width="400"
       height="400"
       xlink:href="#path12394" />
    <use
       transform="translate(25.062259,43.643312)"
       id="use16160"
       x="0"
       y="0"
       width="400"
       height="400"
       xlink:href="#path12394" />
    <use
       transform="translate(25.062259,72.738853)"
       id="use16162"
       x="0"
       y="0"
       width="400"
       height="400"
       xlink:href="#path12394" />
    <use
       transform="translate(25.062259,101.83439)"
       id="use16164"
       x="0"
       y="0"
       width="400"
       height="400"
       xlink:href="#path12394" />
    <path
       d="M 76.576945,75.464952 L 55.821719,75.464951 L 45.444107,57.490397 L 55.821721,39.515845 L 76.576947,39.515846 L 86.954559,57.490399 L 76.576945,75.464952 z "
       transform="matrix(0.7688749,0,0,0.767628,-1.097655,215.10516)"
       style="fill:#000000;fill-opacity:1;stroke:#000000;stroke-width:1.9524864;stroke-miterlimit:4;stroke-dasharray:none;stroke-opacity:1"
       id="use16166" />
    <path
       d="M 76.576945,75.464952 L 55.821719,75.464951 L 45.444107,57.490397 L 55.821721,39.515845 L 76.576947,39.515846 L 86.954559,57.490399 L 76.576945,75.464952 z "
       transform="matrix(0.7688749,0,0,0.767628,-1.097655,244.2007)"
       style="fill:#000000;fill-opacity:1;stroke:#000000;stroke-width:1.9524864;stroke-miterlimit:4;stroke-dasharray:none;stroke-opacity:1"
       id="use16168" />
    <use
       transform="translate(25.062259,189.12102)"
       id="use16170"
       x="0"
       y="0"
       width="400"
       height="400"
       xlink:href="#path12394" />
    <use
       transform="translate(25.062259,218.21656)"
       id="use16172"
       x="0"
       y="0"
       width="400"
       height="400"
       xlink:href="#path12394" />
    <use
       transform="translate(50.124517,-29.095541)"
       id="use16196"
       x="0"
       y="0"
       width="400"
       height="400"
       xlink:href="#path12394" />
    <use
       transform="translate(50.124517,0)"
       id="use16198"
       x="0"
       y="0"
       width="400"
       height="400"
       xlink:href="#path12394" />
    <use
       transform="translate(50.124517,29.095541)"
       id="use16200"
       x="0"
       y="0"
       width="400"
       height="400"
       xlink:href="#path12394" />
    <use
       transform="translate(50.124517,58.191083)"
       id="use16202"
       x="0"
       y="0"
       width="400"
       height="400"
       xlink:href="#path12394" />
    <path
       d="M 76.576945,75.464952 L 55.821719,75.464951 L 45.444107,57.490397 L 55.821721,39.515845 L 76.576947,39.515846 L 86.954559,57.490399 L 76.576945,75.464952 z "
       transform="matrix(0.7688749,0,0,0.767628,23.964603,171.46185)"
       style="fill:#000000;fill-opacity:1;stroke:#000000;stroke-width:1.9524864;stroke-miterlimit:4;stroke-dasharray:none;stroke-opacity:1"
       id="use16204" />
    <path
       d="M 76.576945,75.464952 L 55.821719,75.464951 L 45.444107,57.490397 L 55.821721,39.515845 L 76.576947,39.515846 L 86.954559,57.490399 L 76.576945,75.464952 z "
       transform="matrix(0.7688749,0,0,0.767628,23.964603,200.55739)"
       style="fill:#000000;fill-opacity:1;stroke:#000000;stroke-width:1.9524864;stroke-miterlimit:4;stroke-dasharray:none;stroke-opacity:1"
       id="use16206" />
    <use
       transform="translate(50.124517,145.47771)"
       id="use16208"
       x="0"
       y="0"
       width="400"
       height="400"
       xlink:href="#path12394" />
    <path
       d="M 76.576945,75.464952 L 55.821719,75.464951 L 45.444107,57.490397 L 55.821721,39.515845 L 76.576947,39.515846 L 86.954559,57.490399 L 76.576945,75.464952 z "
       transform="matrix(0.7688749,0,0,0.767628,23.964603,258.74847)"
       style="fill:#000000;fill-opacity:1;stroke:#000000;stroke-width:1.9524864;stroke-miterlimit:4;stroke-dasharray:none;stroke-opacity:1"
       id="use16210" />
    <path
       d="M 76.576945,75.464952 L 55.821719,75.464951 L 45.444107,57.490397 L 55.821721,39.515845 L 76.576947,39.515846 L 86.954559,57.490399 L 76.576945,75.464952 z "
       transform="matrix(0.7688749,0,0,0.767628,23.964603,287.84401)"
       style="fill:#000000;fill-opacity:1;stroke:#000000;stroke-width:1.9524864;stroke-miterlimit:4;stroke-dasharray:none;stroke-opacity:1"
       id="use16212" />
    <path
       d="M 76.576945,75.464952 L 55.821719,75.464951 L 45.444107,57.490397 L 55.821721,39.515845 L 76.576947,39.515846 L 86.954559,57.490399 L 76.576945,75.464952 z "
       transform="matrix(0.7688749,0,0,0.767628,23.964603,316.93955)"
       style="fill:#000000;fill-opacity:1;stroke:#000000;stroke-width:1.9524864;stroke-miterlimit:4;stroke-dasharray:none;stroke-opacity:1"
       id="use16214" />
    <path
       d="M 76.576945,75.464952 L 55.821719,75.464951 L 45.444107,57.490397 L 55.821721,39.515845 L 76.576947,39.515846 L 86.954559,57.490399 L 76.576945,75.464952 z "
       transform="matrix(0.7688749,0,0,0.767628,49.026862,40.531912)"
       style="fill:#000000;fill-opacity:1;stroke:#000000;stroke-width:1.9524864;stroke-miterlimit:4;stroke-dasharray:none;stroke-opacity:1"
       id="use16236" />
    <use
       transform="translate(75.186776,-14.547771)"
       id="use16238"
       x="0"
       y="0"
       width="400"
       height="400"
       xlink:href="#path12394" />
    <use
       transform="translate(75.186776,14.547771)"
       id="use16240"
       x="0"
       y="0"
       width="400"
       height="400"
       xlink:href="#path12394" />
    <path
       d="M 76.576945,75.464952 L 55.821719,75.464951 L 45.444107,57.490397 L 55.821721,39.515845 L 76.576947,39.515846 L 86.954559,57.490399 L 76.576945,75.464952 z "
       transform="matrix(0.7688749,0,0,0.767628,49.026862,127.81854)"
       style="fill:#000000;fill-opacity:1;stroke:#000000;stroke-width:1.9524864;stroke-miterlimit:4;stroke-dasharray:none;stroke-opacity:1"
       id="use16242" />
    <path
       d="M 76.576945,75.464952 L 55.821719,75.464951 L 45.444107,57.490397 L 55.821721,39.515845 L 76.576947,39.515846 L 86.954559,57.490399 L 76.576945,75.464952 z "
       transform="matrix(0.7688749,0,0,0.767628,49.026862,156.91408)"
       style="fill:#000000;fill-opacity:1;stroke:#000000;stroke-width:1.9524864;stroke-miterlimit:4;stroke-dasharray:none;stroke-opacity:1"
       id="use16244" />
    <use
       transform="translate(75.186776,101.83439)"
       id="use16246"
       x="0"
       y="0"
       width="400"
       height="400"
       xlink:href="#path12394" />
    <use
       transform="translate(75.186776,130.92994)"
       id="use16248"
       x="0"
       y="0"
       width="400"
       height="400"
       xlink:href="#path12394" />
    <use
       transform="translate(75.186776,160.02548)"
       id="use16250"
       x="0"
       y="0"
       width="400"
       height="400"
       xlink:href="#path12394" />
    <use
       transform="translate(75.186776,189.12102)"
       id="use16252"
       x="0"
       y="0"
       width="400"
       height="400"
       xlink:href="#path12394" />
    <use
       transform="translate(75.186776,218.21656)"
       id="use16254"
       x="0"
       y="0"
       width="400"
       height="400"
       xlink:href="#path12394" />
    <use
       transform="translate(75.186776,247.3121)"
       id="use16256"
       x="0"
       y="0"
       width="400"
       height="400"
       xlink:href="#path12394" />
    <use
       transform="translate(100.24903,-58.191083)"
       id="use16276"
       x="0"
       y="0"
       width="400"
       height="400"
       xlink:href="#path12394" />
    <path
       d="M 76.576945,75.464952 L 55.821719,75.464951 L 45.444107,57.490397 L 55.821721,39.515845 L 76.576947,39.515846 L 86.954559,57.490399 L 76.576945,75.464952 z "
       transform="matrix(0.7688749,0,0,0.767628,74.089116,55.079683)"
       style="fill:#000000;fill-opacity:1;stroke:#000000;stroke-width:1.9524864;stroke-miterlimit:4;stroke-dasharray:none;stroke-opacity:1"
       id="use16278" />
    <path
       d="M 76.576945,75.464952 L 55.821719,75.464951 L 45.444107,57.490397 L 55.821721,39.515845 L 76.576947,39.515846 L 86.954559,57.490399 L 76.576945,75.464952 z "
       transform="matrix(0.7688749,0,0,0.767628,74.089116,84.175224)"
       style="fill:#000000;fill-opacity:1;stroke:#000000;stroke-width:1.9524864;stroke-miterlimit:4;stroke-dasharray:none;stroke-opacity:1"
       id="use16280" />
    <path
       d="M 76.576945,75.464952 L 55.821719,75.464951 L 45.444107,57.490397 L 55.821721,39.515845 L 76.576947,39.515846 L 86.954559,57.490399 L 76.576945,75.464952 z "
       transform="matrix(0.7688749,0,0,0.767628,74.089116,113.27076)"
       style="fill:#000000;fill-opacity:1;stroke:#000000;stroke-width:1.9524864;stroke-miterlimit:4;stroke-dasharray:none;stroke-opacity:1"
       id="use16282" />
    <use
       transform="translate(100.24903,58.191083)"
       id="use16284"
       x="0"
       y="0"
       width="400"
       height="400"
       xlink:href="#path12394" />
    <use
       transform="translate(100.24903,87.286624)"
       id="use16286"
       x="0"
       y="0"
       width="400"
       height="400"
       xlink:href="#path12394" />
    <use
       transform="translate(100.24903,116.38217)"
       id="use16288"
       x="0"
       y="0"
       width="400"
       height="400"
       xlink:href="#path12394" />
    <use
       transform="translate(100.24903,145.47771)"
       id="use16290"
       x="0"
       y="0"
       width="400"
       height="400"
       xlink:href="#path12394" />
    <use
       transform="translate(100.24903,174.57325)"
       id="use16292"
       x="0"
       y="0"
       width="400"
       height="400"
       xlink:href="#path12394" />
    <use
       transform="translate(100.24903,203.66879)"
       id="use16294"
       x="0"
       y="0"
       width="400"
       height="400"
       xlink:href="#path12394" />
    <use
       transform="translate(100.24903,232.76433)"
       id="use16296"
       x="0"
       y="0"
       width="400"
       height="400"
       xlink:href="#path12394" />
    <use
       transform="translate(100.24903,261.85987)"
       id="use16298"
       x="0"
       y="0"
       width="400"
       height="400"
       xlink:href="#path12394" />
    <use
       transform="translate(125.31129,-72.738853)"
       id="use16316"
       x="0"
       y="0"
       width="400"
       height="400"
       xlink:href="#path12394" />
    <path
       d="M 76.576945,75.464952 L 55.821719,75.464951 L 45.444107,57.490397 L 55.821721,39.515845 L 76.576947,39.515846 L 86.954559,57.490399 L 76.576945,75.464952 z "
       transform="matrix(0.7688749,0,0,0.767628,99.151376,40.531912)"
       style="fill:#000000;fill-opacity:1;stroke:#000000;stroke-width:1.9524864;stroke-miterlimit:4;stroke-dasharray:none;stroke-opacity:1"
       id="use16318" />
    <use
       transform="translate(125.31129,-14.547771)"
       id="use16320"
       x="0"
       y="0"
       width="400"
       height="400"
       xlink:href="#path12394" />
    <use
       transform="translate(125.31129,14.547771)"
       id="use16322"
       x="0"
       y="0"
       width="400"
       height="400"
       xlink:href="#path12394" />
    <use
       transform="translate(125.31129,43.643312)"
       id="use16324"
       x="0"
       y="0"
       width="400"
       height="400"
       xlink:href="#path12394" />
    <use
       transform="translate(125.31129,72.738853)"
       id="use16326"
       x="0"
       y="0"
       width="400"
       height="400"
       xlink:href="#path12394" />
    <use
       transform="translate(125.31129,101.83439)"
       id="use16328"
       x="0"
       y="0"
       width="400"
       height="400"
       xlink:href="#path12394" />
    <use
       transform="translate(125.31129,130.92994)"
       id="use16330"
       x="0"
       y="0"
       width="400"
       height="400"
       xlink:href="#path12394" />
    <use
       transform="translate(125.31129,160.02548)"
       id="use16332"
       x="0"
       y="0"
       width="400"
       height="400"
       xlink:href="#path12394" />
    <use
       transform="translate(125.31129,189.12102)"
       id="use16334"
       x="0"
       y="0"
       width="400"
       height="400"
       xlink:href="#path12394" />
    <use
       transform="translate(125.31129,218.21656)"
       id="use16336"
       x="0"
       y="0"
       width="400"
       height="400"
       xlink:href="#path12394" />
    <use
       transform="translate(125.31129,247.3121)"
       id="use16338"
       x="0"
       y="0"
       width="400"
       height="400"
       xlink:href="#path12394" />
    <use
       transform="translate(125.31129,276.40764)"
       id="use16340"
       x="0"
       y="0"
       width="400"
       height="400"
       xlink:href="#path12394" />
    <use
       transform="translate(150.37355,-87.286624)"
       id="use16356"
       x="0"
       y="0"
       width="400"
       height="400"
       xlink:href="#path12394" />
    <path
       d="M 76.576945,75.464952 L 55.821719,75.464951 L 45.444107,57.490397 L 55.821721,39.515845 L 76.576947,39.515846 L 86.954559,57.490399 L 76.576945,75.464952 z "
       transform="matrix(0.7688749,0,0,0.767628,124.21364,25.984141)"
       style="fill:#000000;fill-opacity:1;stroke:#000000;stroke-width:1.9524864;stroke-miterlimit:4;stroke-dasharray:none;stroke-opacity:1"
       id="use16358" />
    <use
       transform="translate(150.37355,-29.095541)"
       id="use16360"
       x="0"
       y="0"
       width="400"
       height="400"
       xlink:href="#path12394" />
    <use
       transform="translate(150.37355,0)"
       id="use16362"
       x="0"
       y="0"
       width="400"
       height="400"
       xlink:href="#path12394" />
    <use
       transform="translate(150.37355,29.095541)"
       id="use16364"
       x="0"
       y="0"
       width="400"
       height="400"
       xlink:href="#path12394" />
    <path
       d="M 76.576945,75.464952 L 55.821719,75.464951 L 45.444107,57.490397 L 55.821721,39.515845 L 76.576947,39.515846 L 86.954559,57.490399 L 76.576945,75.464952 z "
       transform="matrix(0.7688749,0,0,0.767628,124.21364,142.36631)"
       style="fill:#721817;fill-opacity:1;stroke:#000000;stroke-width:1.9524864;stroke-miterlimit:4;stroke-dasharray:none;stroke-opacity:1"
       id="use16366" />
    <path
       d="M 76.576945,75.464952 L 55.821719,75.464951 L 45.444107,57.490397 L 55.821721,39.515845 L 76.576947,39.515846 L 86.954559,57.490399 L 76.576945,75.464952 z "
       transform="matrix(0.7688749,0,0,0.767628,124.21364,171.46185)"
       style="fill:#721817;fill-opacity:1;stroke:#000000;stroke-width:1.9524864;stroke-miterlimit:4;stroke-dasharray:none;stroke-opacity:1"
       id="use16368" />
    <use
       transform="translate(150.37355,116.38217)"
       id="use16370"
       x="0"
       y="0"
       width="400"
       height="400"
       xlink:href="#path12394" />
    <use
       transform="translate(150.37355,145.47771)"
       id="use16372"
       x="0"
       y="0"
       width="400"
       height="400"
       xlink:href="#path12394" />
    <use
       transform="translate(150.37355,174.57325)"
       id="use16374"
       x="0"
       y="0"
       width="400"
       height="400"
       xlink:href="#path12394" />
    <use
       transform="translate(150.37355,203.66879)"
       id="use16376"
       x="0"
       y="0"
       width="400"
       height="400"
       xlink:href="#path12394" />
    <use
       transform="translate(150.37355,232.76433)"
       id="use16378"
       x="0"
       y="0"
       width="400"
       height="400"
       xlink:href="#path12394" />
    <use
       transform="translate(150.37355,261.85987)"
       id="use16380"
       x="0"
       y="0"
       width="400"
       height="400"
       xlink:href="#path12394" />
    <use
       transform="translate(150.37355,290.95541)"
       id="use16382"
       x="0"
       y="0"
       width="400"
       height="400"
       xlink:href="#path12394" />
    <use
       transform="translate(175.43581,-101.83439)"
       id="use16396"
       x="0"
       y="0"
       width="400"
       height="400"
       xlink:href="#path12394" />
    <path
       d="M 76.576945,75.464952 L 55.821719,75.464951 L 45.444107,57.490397 L 55.821721,39.515845 L 76.576947,39.515846 L 86.954559,57.490399 L 76.576945,75.464952 z "
       transform="matrix(0.7688749,0,0,0.767628,149.2759,11.436371)"
       style="fill:#000000;fill-opacity:1;stroke:#000000;stroke-width:1.9524864;stroke-miterlimit:4;stroke-dasharray:none;stroke-opacity:1"
       id="use16398" />
    <use
       transform="translate(175.43581,-43.643312)"
       id="use16400"
       x="0"
       y="0"
       width="400"
       height="400"
       xlink:href="#path12394" />
    <use
       transform="translate(175.43581,-14.547771)"
       id="use16402"
       x="0"
       y="0"
       width="400"
       height="400"
       xlink:href="#path12394" />
    <use
       transform="translate(175.43581,14.547771)"
       id="use16404"
       x="0"
       y="0"
       width="400"
       height="400"
       xlink:href="#path12394" />
    <path
       d="M 76.576945,75.464952 L 55.821719,75.464951 L 45.444107,57.490397 L 55.821721,39.515845 L 76.576947,39.515846 L 86.954559,57.490399 L 76.576945,75.464952 z "
       transform="matrix(0.7688749,0,0,0.767628,149.2759,127.81854)"
       style="fill:#721817;fill-opacity:1;stroke:#000000;stroke-width:1.9524864;stroke-miterlimit:4;stroke-dasharray:none;stroke-opacity:1"
       id="use16406" />
    <use
       transform="translate(175.43581,72.738853)"
       id="use16408"
       x="0"
       y="0"
       width="400"
       height="400"
       xlink:href="#path12394" />
    <path
       d="M 76.576945,75.464952 L 55.821719,75.464951 L 45.444107,57.490397 L 55.821721,39.515845 L 76.576947,39.515846 L 86.954559,57.490399 L 76.576945,75.464952 z "
       transform="matrix(0.7688749,0,0,0.767628,149.2759,186.00961)"
       style="fill:#721817;fill-opacity:1;stroke:#000000;stroke-width:1.9524864;stroke-miterlimit:4;stroke-dasharray:none;stroke-opacity:1"
       id="use16410" />
    <path
       d="M 76.576945,75.464952 L 55.821719,75.464951 L 45.444107,57.490397 L 55.821721,39.515845 L 76.576947,39.515846 L 86.954559,57.490399 L 76.576945,75.464952 z "
       transform="matrix(0.7688749,0,0,0.767628,149.2759,215.10516)"
       style="fill:#721817;fill-opacity:1;stroke:#000000;stroke-width:1.9524864;stroke-miterlimit:4;stroke-dasharray:none;stroke-opacity:1"
       id="use16412" />
    <use
       transform="translate(175.43581,160.02548)"
       id="use16414"
       x="0"
       y="0"
       width="400"
       height="400"
       xlink:href="#path12394" />
    <use
       transform="translate(175.43581,189.12102)"
       id="use16416"
       x="0"
       y="0"
       width="400"
       height="400"
       xlink:href="#path12394" />
    <use
       transform="translate(175.43581,218.21656)"
       id="use16418"
       x="0"
       y="0"
       width="400"
       height="400"
       xlink:href="#path12394" />
    <use
       transform="translate(175.43581,247.3121)"
       id="use16420"
       x="0"
       y="0"
       width="400"
       height="400"
       xlink:href="#path12394" />
    <use
       transform="translate(175.43581,276.40764)"
       id="use16422"
       x="0"
       y="0"
       width="400"
       height="400"
       xlink:href="#path12394" />
    <use
       transform="translate(175.43581,305.50318)"
       id="use16424"
       x="0"
       y="0"
       width="400"
       height="400"
       xlink:href="#path12394" />
    <use
       transform="translate(200.49807,-87.286624)"
       id="use16438"
       x="0"
       y="0"
       width="400"
       height="400"
       xlink:href="#path12394" />
    <path
       d="M 76.576945,75.464952 L 55.821719,75.464951 L 45.444107,57.490397 L 55.821721,39.515845 L 76.576947,39.515846 L 86.954559,57.490399 L 76.576945,75.464952 z "
       transform="matrix(0.7688749,0,0,0.767628,174.33816,25.984141)"
       style="fill:#000000;fill-opacity:1;stroke:#000000;stroke-width:1.9524864;stroke-miterlimit:4;stroke-dasharray:none;stroke-opacity:1"
       id="use16440" />
    <use
       transform="translate(200.49807,-29.095541)"
       id="use16442"
       x="0"
       y="0"
       width="400"
       height="400"
       xlink:href="#path12394" />
    <use
       transform="translate(200.49807,0)"
       id="use16444"
       x="0"
       y="0"
       width="400"
       height="400"
       xlink:href="#path12394" />
    <use
       transform="translate(200.49807,29.095541)"
       id="use16446"
       x="0"
       y="0"
       width="400"
       height="400"
       xlink:href="#path12394" />
    <path
       d="M 76.576945,75.464952 L 55.821719,75.464951 L 45.444107,57.490397 L 55.821721,39.515845 L 76.576947,39.515846 L 86.954559,57.490399 L 76.576945,75.464952 z "
       transform="matrix(0.7688749,0,0,0.767628,174.33816,142.36631)"
       style="fill:#721817;fill-opacity:1;stroke:#000000;stroke-width:1.9524864;stroke-miterlimit:4;stroke-dasharray:none;stroke-opacity:1"
       id="use16448" />
    <use
       transform="translate(200.49807,87.286624)"
       id="use16450"
       x="0"
       y="0"
       width="400"
       height="400"
       xlink:href="#path12394" />
    <use
       transform="translate(200.49807,116.38217)"
       id="use16452"
       x="0"
       y="0"
       width="400"
       height="400"
       xlink:href="#path12394" />
    <path
       d="M 76.576945,75.464952 L 55.821719,75.464951 L 45.444107,57.490397 L 55.821721,39.515845 L 76.576947,39.515846 L 86.954559,57.490399 L 76.576945,75.464952 z "
       transform="matrix(0.7688749,0,0,0.767628,174.33816,229.65293)"
       style="fill:#721817;fill-opacity:1;stroke:#000000;stroke-width:1.9524864;stroke-miterlimit:4;stroke-dasharray:none;stroke-opacity:1"
       id="use16454" />
    <use
       transform="translate(200.49807,174.57325)"
       id="use16456"
       x="0"
       y="0"
       width="400"
       height="400"
       xlink:href="#path12394" />
    <use
       transform="translate(200.49807,203.66879)"
       id="use16458"
       x="0"
       y="0"
       width="400"
       height="400"
       xlink:href="#path12394" />
    <use
       transform="translate(200.49807,232.76433)"
       id="use16460"
       x="0"
       y="0"
       width="400"
       height="400"
       xlink:href="#path12394" />
    <use
       transform="translate(200.49807,261.85987)"
       id="use16462"
       x="0"
       y="0"
       width="400"
       height="400"
       xlink:href="#path12394" />
    <use
       transform="translate(200.49807,290.95541)"
       id="use16464"
       x="0"
       y="0"
       width="400"
       height="400"
       xlink:href="#path12394" />
    <path
       d="M 76.576945,75.464952 L 55.821719,75.464951 L 45.444107,57.490397 L 55.821721,39.515845 L 76.576947,39.515846 L 86.954559,57.490399 L 76.576945,75.464952 z "
       transform="matrix(0.7688749,0,0,0.767628,199.40042,11.436371)"
       style="fill:#000000;fill-opacity:1;stroke:#000000;stroke-width:1.9524864;stroke-miterlimit:4;stroke-dasharray:none;stroke-opacity:1"
       id="use16480" />
    <use
       transform="translate(225.56033,-43.643312)"
       id="use16482"
       x="0"
       y="0"
       width="400"
       height="400"
       xlink:href="#path12394" />
    <use
       transform="translate(225.56033,-14.547771)"
       id="use16484"
       x="0"
       y="0"
       width="400"
       height="400"
       xlink:href="#path12394" />
    <use
       transform="translate(225.56033,14.547771)"
       id="use16486"
       x="0"
       y="0"
       width="400"
       height="400"
       xlink:href="#path12394" />
    <use
       transform="translate(225.56033,43.643312)"
       id="use16488"
       x="0"
       y="0"
       width="400"
       height="400"
       xlink:href="#path12394" />
    <path
       d="M 76.576945,75.464952 L 55.821719,75.464951 L 45.444107,57.490397 L 55.821721,39.515845 L 76.576947,39.515846 L 86.954559,57.490399 L 76.576945,75.464952 z "
       transform="matrix(0.7688749,0,0,0.767628,199.40042,156.91408)"
       style="fill:#721817;fill-opacity:1;stroke:#000000;stroke-width:1.9524864;stroke-miterlimit:4;stroke-dasharray:none;stroke-opacity:1"
       id="use16490" />
    <path
       d="M 76.576945,75.464952 L 55.821719,75.464951 L 45.444107,57.490397 L 55.821721,39.515845 L 76.576947,39.515846 L 86.954559,57.490399 L 76.576945,75.464952 z "
       transform="matrix(0.7688749,0,0,0.767628,199.40042,186.00961)"
       style="fill:#721817;fill-opacity:1;stroke:#000000;stroke-width:1.9524864;stroke-miterlimit:4;stroke-dasharray:none;stroke-opacity:1"
       id="use16492" />
    <path
       d="M 76.576945,75.464952 L 55.821719,75.464951 L 45.444107,57.490397 L 55.821721,39.515845 L 76.576947,39.515846 L 86.954559,57.490399 L 76.576945,75.464952 z "
       transform="matrix(0.7688749,0,0,0.767628,199.40042,215.10516)"
       style="fill:#721817;fill-opacity:1;stroke:#000000;stroke-width:1.9524864;stroke-miterlimit:4;stroke-dasharray:none;stroke-opacity:1"
       id="use16494" />
    <use
       transform="translate(225.56033,160.02548)"
       id="use16496"
       x="0"
       y="0"
       width="400"
       height="400"
       xlink:href="#path12394" />
    <use
       transform="translate(225.56033,189.12102)"
       id="use16498"
       x="0"
       y="0"
       width="400"
       height="400"
       xlink:href="#path12394" />
    <use
       transform="translate(225.56033,218.21656)"
       id="use16500"
       x="0"
       y="0"
       width="400"
       height="400"
       xlink:href="#path12394" />
    <use
       transform="translate(225.56033,247.3121)"
       id="use16502"
       x="0"
       y="0"
       width="400"
       height="400"
       xlink:href="#path12394" />
    <use
       transform="translate(225.56033,276.40764)"
       id="use16504"
       x="0"
       y="0"
       width="400"
       height="400"
       xlink:href="#path12394" />
    <use
       transform="translate(250.62259,-58.191083)"
       id="use16522"
       x="0"
       y="0"
       width="400"
       height="400"
       xlink:href="#path12394" />
    <use
       transform="translate(250.62259,-29.095541)"
       id="use16524"
       x="0"
       y="0"
       width="400"
       height="400"
       xlink:href="#path12394" />
    <use
       transform="translate(250.62259,0)"
       id="use16526"
       x="0"
       y="0"
       width="400"
       height="400"
       xlink:href="#path12394" />
    <use
       transform="translate(250.62259,29.095541)"
       id="use16528"
       x="0"
       y="0"
       width="400"
       height="400"
       xlink:href="#path12394" />
    <use
       transform="translate(250.62259,58.191083)"
       id="use16530"
       x="0"
       y="0"
       width="400"
       height="400"
       xlink:href="#path12394" />
    <use
       transform="translate(250.62259,87.286624)"
       id="use16532"
       x="0"
       y="0"
       width="400"
       height="400"
       xlink:href="#path12394" />
    <use
       transform="translate(250.62259,116.38217)"
       id="use16534"
       x="0"
       y="0"
       width="400"
       height="400"
       xlink:href="#path12394" />
    <use
       transform="translate(250.62259,145.47771)"
       id="use16536"
       x="0"
       y="0"
       width="400"
       height="400"
       xlink:href="#path12394" />
    <use
       transform="translate(250.62259,174.57325)"
       id="use16538"
       x="0"
       y="0"
       width="400"
       height="400"
       xlink:href="#path12394" />
    <use
       transform="translate(250.62259,203.66879)"
       id="use16540"
       x="0"
       y="0"
       width="400"
       height="400"
       xlink:href="#path12394" />
    <use
       transform="translate(250.62259,232.76433)"
       id="use16542"
       x="0"
       y="0"
       width="400"
       height="400"
       xlink:href="#path12394" />
    <use
       transform="translate(250.62259,261.85987)"
       id="use16544"
       x="0"
       y="0"
       width="400"
       height="400"
       xlink:href="#path12394" />
    <use
       transform="translate(275.68485,-43.643312)"
       id="use16564"
       x="0"
       y="0"
       width="400"
       height="400"
       xlink:href="#path12394" />
    <use
       transform="translate(275.68485,-14.547771)"
       id="use16566"
       x="0"
       y="0"
       width="400"
       height="400"
       xlink:href="#path12394" />
    <use
       transform="translate(275.68485,14.547771)"
       id="use16568"
       x="0"
       y="0"
       width="400"
       height="400"
       xlink:href="#path12394" />
    <use
       transform="translate(275.68485,43.643312)"
       id="use16570"
       x="0"
       y="0"
       width="400"
       height="400"
       xlink:href="#path12394" />
    <use
       transform="translate(275.68485,72.738853)"
       id="use16572"
       x="0"
       y="0"
       width="400"
       height="400"
       xlink:href="#path12394" />
    <use
       transform="translate(275.68485,101.83439)"
       id="use16574"
       x="0"
       y="0"
       width="400"
       height="400"
       xlink:href="#path12394" />
    <use
       transform="translate(275.68485,130.92994)"
       id="use16576"
       x="0"
       y="0"
       width="400"
       height="400"
       xlink:href="#path12394" />
    <use
       transform="translate(275.68485,160.02548)"
       id="use16578"
       x="0"
       y="0"
       width="400"
       height="400"
       xlink:href="#path12394" />
    <use
       transform="translate(275.68485,189.12102)"
       id="use16580"
       x="0"
       y="0"
       width="400"
       height="400"
       xlink:href="#path12394" />
    <use
       transform="translate(275.68485,218.21656)"
       id="use16582"
       x="0"
       y="0"
       width="400"
       height="400"
       xlink:href="#path12394" />
    <use
       transform="translate(275.68485,247.3121)"
       id="use16584"
       x="0"
       y="0"
       width="400"
       height="400"
       xlink:href="#path12394" />
    <use
       transform="translate(300.7471,-29.095541)"
       id="use16606"
       x="0"
       y="0"
       width="400"
       height="400"
       xlink:href="#path12394" />
    <use
       transform="translate(300.7471,0)"
       id="use16608"
       x="0"
       y="0"
       width="400"
       height="400"
       xlink:href="#path12394" />
    <path
       d="M 76.576945,75.464952 L 55.821719,75.464951 L 45.444107,57.490397 L 55.821721,39.515845 L 76.576947,39.515846 L 86.954559,57.490399 L 76.576945,75.464952 z "
       transform="matrix(0.7688749,0,0,0.767628,274.58719,113.27076)"
       style="fill:#000000;fill-opacity:1;stroke:#000000;stroke-width:1.9524864;stroke-miterlimit:4;stroke-dasharray:none;stroke-opacity:1"
       id="use16610" />
    <path
       d="M 76.576945,75.464952 L 55.821719,75.464951 L 45.444107,57.490397 L 55.821721,39.515845 L 76.576947,39.515846 L 86.954559,57.490399 L 76.576945,75.464952 z "
       transform="matrix(0.7688749,0,0,0.767628,274.58719,142.36631)"
       style="fill:#000000;fill-opacity:1;stroke:#000000;stroke-width:1.9524864;stroke-miterlimit:4;stroke-dasharray:none;stroke-opacity:1"
       id="use16612" />
    <use
       transform="translate(300.7471,87.286624)"
       id="use16614"
       x="0"
       y="0"
       width="400"
       height="400"
       xlink:href="#path12394" />
    <use
       transform="translate(300.7471,116.38217)"
       id="use16616"
       x="0"
       y="0"
       width="400"
       height="400"
       xlink:href="#path12394" />
    <path
       d="M 76.576945,75.464952 L 55.821719,75.464951 L 45.444107,57.490397 L 55.821721,39.515845 L 76.576947,39.515846 L 86.954559,57.490399 L 76.576945,75.464952 z "
       transform="matrix(0.7688749,0,0,0.767628,274.58719,229.65293)"
       style="fill:#000000;fill-opacity:1;stroke:#000000;stroke-width:1.9524864;stroke-miterlimit:4;stroke-dasharray:none;stroke-opacity:1"
       id="use16618" />
    <path
       d="M 76.576945,75.464952 L 55.821719,75.464951 L 45.444107,57.490397 L 55.821721,39.515845 L 76.576947,39.515846 L 86.954559,57.490399 L 76.576945,75.464952 z "
       transform="matrix(0.7688749,0,0,0.767628,274.58719,258.74847)"
       style="fill:#000000;fill-opacity:1;stroke:#000000;stroke-width:1.9524864;stroke-miterlimit:4;stroke-dasharray:none;stroke-opacity:1"
       id="use16620" />
    <use
       transform="translate(300.7471,203.66879)"
       id="use16622"
       x="0"
       y="0"
       width="400"
       height="400"
       xlink:href="#path12394" />
    <use
       transform="translate(300.7471,232.76433)"
       id="use16624"
       x="0"
       y="0"
       width="400"
       height="400"
       xlink:href="#path12394" />
    <use
       transform="translate(325.80936,-14.547771)"
       id="use16648"
       x="0"
       y="0"
       width="400"
       height="400"
       xlink:href="#path12394" />
    <path
       d="M 76.576945,75.464952 L 55.821719,75.464951 L 45.444107,57.490397 L 55.821721,39.515845 L 76.576947,39.515846 L 86.954559,57.490399 L 76.576945,75.464952 z "
       transform="matrix(0.7688749,0,0,0.767628,299.64945,98.722995)"
       style="fill:#000000;fill-opacity:1;stroke:#000000;stroke-width:1.9524864;stroke-miterlimit:4;stroke-dasharray:none;stroke-opacity:1"
       id="use16650" />
    <use
       transform="translate(325.80936,43.643312)"
       id="use16652"
       x="0"
       y="0"
       width="400"
       height="400"
       xlink:href="#path12394" />
    <path
       d="M 76.576945,75.464952 L 55.821719,75.464951 L 45.444107,57.490397 L 55.821721,39.515845 L 76.576947,39.515846 L 86.954559,57.490399 L 76.576945,75.464952 z "
       transform="matrix(0.7688749,0,0,0.767628,299.64945,156.91408)"
       style="fill:#000000;fill-opacity:1;stroke:#000000;stroke-width:1.9524864;stroke-miterlimit:4;stroke-dasharray:none;stroke-opacity:1"
       id="use16654" />
    <path
       d="M 76.576945,75.464952 L 55.821719,75.464951 L 45.444107,57.490397 L 55.821721,39.515845 L 76.576947,39.515846 L 86.954559,57.490399 L 76.576945,75.464952 z "
       transform="matrix(0.7688749,0,0,0.767628,299.64945,186.00961)"
       style="fill:#000000;fill-opacity:1;stroke:#000000;stroke-width:1.9524864;stroke-miterlimit:4;stroke-dasharray:none;stroke-opacity:1"
       id="use16656" />
    <path
       d="M 76.576945,75.464952 L 55.821719,75.464951 L 45.444107,57.490397 L 55.821721,39.515845 L 76.576947,39.515846 L 86.954559,57.490399 L 76.576945,75.464952 z "
       transform="matrix(0.7688749,0,0,0.767628,299.64945,215.10516)"
       style="fill:#000000;fill-opacity:1;stroke:#000000;stroke-width:1.9524864;stroke-miterlimit:4;stroke-dasharray:none;stroke-opacity:1"
       id="use16658" />
    <use
       transform="translate(325.80936,160.02548)"
       id="use16660"
       x="0"
       y="0"
       width="400"
       height="400"
       xlink:href="#path12394" />
    <path
       d="M 76.576945,75.464952 L 55.821719,75.464951 L 45.444107,57.490397 L 55.821721,39.515845 L 76.576947,39.515846 L 86.954559,57.490399 L 76.576945,75.464952 z "
       transform="matrix(0.7688749,0,0,0.767628,299.64945,273.29624)"
       style="fill:#000000;fill-opacity:1;stroke:#000000;stroke-width:1.9524864;stroke-miterlimit:4;stroke-dasharray:none;stroke-opacity:1"
       id="use16662" />
    <use
       transform="translate(325.80936,218.21656)"
       id="use16664"
       x="0"
       y="0"
       width="400"
       height="400"
       xlink:href="#path12394" />
    <path
       d="M 76.576945,75.464952 L 55.821719,75.464951 L 45.444107,57.490397 L 55.821721,39.515845 L 76.576947,39.515846 L 86.954559,57.490399 L 76.576945,75.464952 z "
       transform="matrix(0.7688749,0,0,0.767628,324.71171,84.175224)"
       style="fill:#000000;fill-opacity:1;stroke:#000000;stroke-width:1.9524864;stroke-miterlimit:4;stroke-dasharray:none;stroke-opacity:1"
       id="use16690" />
    <use
       transform="translate(350.87162,29.095541)"
       id="use16692"
       x="0"
       y="0"
       width="400"
       height="400"
       xlink:href="#path12394" />
    <use
       transform="translate(350.87162,58.191083)"
       id="use16694"
       x="0"
       y="0"
       width="400"
       height="400"
       xlink:href="#path12394" />
    <use
       transform="translate(350.87162,87.286624)"
       id="use16696"
       x="0"
       y="0"
       width="400"
       height="400"
       xlink:href="#path12394" />
    <use
       transform="translate(350.87162,116.38217)"
       id="use16698"
       x="0"
       y="0"
       width="400"
       height="400"
       xlink:href="#path12394" />
    <use
       transform="translate(350.87162,145.47771)"
       id="use16700"
       x="0"
       y="0"
       width="400"
       height="400"
       xlink:href="#path12394" />
    <use
       transform="translate(350.87162,174.57325)"
       id="use16702"
       x="0"
       y="0"
       width="400"
       height="400"
       xlink:href="#path12394" />
    <path
       d="M 76.576945,75.464952 L 55.821719,75.464951 L 45.444107,57.490397 L 55.821721,39.515845 L 76.576947,39.515846 L 86.954559,57.490399 L 76.576945,75.464952 z "
       transform="matrix(0.7688749,0,0,0.767628,324.71171,287.84401)"
       style="fill:#000000;fill-opacity:1;stroke:#000000;stroke-width:1.9524864;stroke-miterlimit:4;stroke-dasharray:none;stroke-opacity:1"
       id="use16704" />
  </g>
</svg>
